# xmcd
#
# Track frame offsets: 
#        150
#        9992
#        25163
#        36209
#        48465
#        62359
#        78767
#        110456
#        121636
#        136415
#        152896
#        184329
#        204143
#        217825
#        240517
#        271447
#        287000
#        299630
#        315454
#        326434
#
# Disc length: 4501 seconds
#
# Revision: 1
# Processed by: cddbd v1.5.2PL0 Copyright (c) Steve Scherf et al.
# Submitted via: ExactAudioCopy v1.0b3
#
DISCID=0e119314
DTITLE=Dinah Washington - 100 Hits Legends [CD 4)
DYEAR=2011
DGENRE=Blues
TTITLE0=September in the Rain
TTITLE1=Smoke Gets in Your Eyes
TTITLE2=I Cried for You
TTITLE3=(Remember Me) I'm the One Who Loves You
TTITLE4=I Thought About You
TTITLE5=Stardust
TTITLE6=I Let a Song Go Out of My Heart
TTITLE7=Time After Time
TTITLE8=Nothing in the World
TTITLE9=Careless Love
TTITLE10=Bye Bye Blues
TTITLE11=So in Love
TTITLE12=Stormy Weather
TTITLE13=Easy Living
TTITLE14=This Can't Be Love
TTITLE15=T'ain't Nobody's Biz-ness If I Do
TTITLE16=Christopher Columbus
TTITLE17=You're Crying
TTITLE18=But Not for Me
TTITLE19=Ev'ry Time We Say Goodbye
EXTD=
EXTT0=
EXTT1=
EXTT2=
EXTT3=
EXTT4=
EXTT5=
EXTT6=
EXTT7=
EXTT8=
EXTT9=
EXTT10=
EXTT11=
EXTT12=
EXTT13=
EXTT14=
EXTT15=
EXTT16=
EXTT17=
EXTT18=
EXTT19=
PLAYORDER=
